<svg version="1.1" id="Layer_1" xmlns="http://www.w3.org/2000/svg" xmlns:xlink="http://www.w3.org/1999/xlink" x="0px" y="0px"
	 width="100%" viewBox="0 0 1024 1024" enable-background="new 0 0 1024 1024" xml:space="preserve">
<path fill="#000000" opacity="1.000000" stroke="none" 
	d="
M498.107727,664.298218 
	C466.686829,659.124939 450.953613,637.340698 448.545715,611.226990 
	C448.470490,610.411194 448.085510,609.628906 447.921661,608.815552 
	C446.934631,603.915894 447.571564,603.351868 452.427246,603.440491 
	C462.422180,603.622925 472.422699,603.705017 482.417419,603.569397 
	C485.628296,603.525818 487.218414,604.665161 488.145691,607.680908 
	C494.443024,628.161499 519.519714,627.881409 530.621033,618.796875 
	C536.974243,613.597778 538.381653,603.258179 533.879028,595.551392 
	C529.554504,588.149353 522.591736,583.903503 515.227173,580.238281 
	C494.921356,570.132385 473.601807,562.460938 452.478699,554.327148 
	C432.556274,546.655701 412.856934,538.541077 395.286438,526.122986 
	C368.627350,507.281433 351.802002,481.806976 345.404968,449.877655 
	C337.906769,412.451874 339.998779,375.709656 356.370575,340.655426 
	C372.121948,306.929535 397.728485,283.089294 431.409393,267.695282 
	C460.284851,254.497604 490.776367,249.114090 522.274292,250.853104 
	C561.817261,253.036316 598.614319,263.962555 629.923035,289.381958 
	C659.699280,313.557220 678.327148,344.289856 683.454773,382.703064 
	C684.556946,390.959961 684.902710,399.251678 685.105225,407.561859 
	C685.175110,410.425964 684.251099,411.629730 681.017517,411.555145 
	C662.366882,411.124969 643.702087,411.503632 625.058411,410.430481 
	C621.907166,410.249084 620.758972,409.284515 620.616638,406.054810 
	C619.001099,369.391632 600.213806,343.894867 568.337952,327.537689 
	C546.072876,316.112305 522.098999,313.888031 497.426697,316.102386 
	C478.956146,317.760101 462.027832,323.408447 446.566376,333.599609 
	C425.257996,347.644714 412.410950,367.494293 407.587433,392.278412 
	C403.014099,415.777039 405.216553,438.662994 417.129944,459.947449 
	C426.217010,476.182404 440.336609,487.207825 456.021454,496.442566 
	C476.758209,508.651642 499.354889,516.936096 521.094299,527.030518 
	C538.611938,535.164551 555.327576,544.397400 566.762817,560.751465 
	C574.110168,571.259338 577.690979,583.012085 578.381165,595.772583 
	C578.858765,604.601379 578.949524,613.384521 576.735901,622.010925 
	C570.822205,645.056458 555.575317,658.326050 532.767944,663.309937 
	C521.472900,665.778015 510.015137,666.060791 498.107727,664.298218 
z"/>
<path fill="#000000" opacity="1.000000" stroke="none" 
	d="
M500.679993,403.587250 
	C489.713684,410.319885 488.207886,421.589722 496.779205,430.722839 
	C501.428802,435.677155 507.293274,438.911072 513.292114,441.803131 
	C539.544617,454.459442 566.591675,465.410950 592.558289,478.685822 
	C612.078613,488.665253 630.720825,499.874542 645.749695,516.230713 
	C665.527344,537.754944 677.088806,562.977783 680.504761,592.041443 
	C684.428101,625.422302 680.026794,657.513245 664.752991,687.535522 
	C644.884460,726.589172 612.931274,751.434448 571.356689,764.383789 
	C551.326355,770.622681 530.713928,773.422668 509.884033,773.054443 
	C467.482635,772.304932 428.412323,760.965271 395.098480,733.581299 
	C366.571503,710.132141 349.188873,680.089050 342.549561,643.716736 
	C340.867188,634.500000 340.934601,625.189941 339.841858,615.959900 
	C339.395020,612.185059 340.599274,610.582703 344.701019,610.578735 
	C362.693726,610.561401 380.687164,610.331726 398.677917,610.033081 
	C402.375122,609.971680 404.287048,610.562073 404.582184,615.039734 
	C405.731659,632.478638 409.580475,649.228333 419.130035,664.232056 
	C435.593353,690.098267 459.261902,704.827148 489.327637,709.738647 
	C510.659485,713.223328 531.829346,712.648743 552.411377,705.876282 
	C591.400940,693.046814 614.143799,666.178711 619.684082,625.366089 
	C622.447876,605.007019 621.348572,584.867493 613.573425,565.505188 
	C602.963623,539.083862 583.163879,521.490601 558.678711,508.392212 
	C538.982727,497.855743 518.234375,489.582581 498.034576,480.130096 
	C489.410675,476.094543 481.154022,471.429321 473.596619,465.612457 
	C455.958557,452.036591 450.798676,433.470062 453.079315,412.353790 
	C455.114502,393.510071 463.565399,378.349243 481.058746,369.585815 
	C493.891418,363.157135 507.738922,361.545319 521.897705,363.052582 
	C533.971863,364.337952 545.460571,367.543579 555.066895,375.476440 
	C568.625000,386.672607 573.560059,401.687714 574.421082,419.327393 
	C568.494690,419.327393 563.060852,419.327423 557.627075,419.327362 
	C554.127380,419.327332 550.598389,419.038818 547.134460,419.390839 
	C541.116577,420.002411 537.421753,418.575500 534.515503,412.273712 
	C529.233521,400.820557 514.075500,397.362274 500.679993,403.587250 
z"/>
</svg>